<svg xmlns="http://www.w3.org/2000/svg" width="29" height="96" viewBox="0 0 29 96">
    <g fill="none" fill-rule="evenodd">
        <g fill="#39393A">
            <g>
                <g>
                    <g>
                        <path d="M62.75 42.74v-9.575c0-1.322-1.073-2.394-2.396-2.394h-1.198v-4.787c0-.66-.536-1.197-1.198-1.197h-2.395c-.662 0-1.198.536-1.198 1.197v4.787H50.77v-9.574c0-.661-.536-1.197-1.198-1.197h-2.396c-.662 0-1.198.536-1.198 1.197v9.574h-3.594v-4.787c0-.66-.536-1.197-1.197-1.197h-2.396c-.662 0-1.198.536-1.198 1.197v4.787h-1.198c-1.323 0-2.396 1.072-2.396 2.394v9.574c0 5.288 4.29 9.575 9.583 9.575h3.594v7.372c0 1.219.485 2.388 1.347 3.25.863.862 2.033 1.346 3.253 1.346h3.785c1.324 0 2.396 1.072 2.396 2.394v8.377c0 .661.537 1.197 1.198 1.197.662 0 1.198-.536 1.198-1.197v-8.377c0-2.644-2.145-4.788-4.791-4.788H51.8c-.585.007-1.148-.22-1.566-.628-.417-.408-.656-.966-.662-1.55v-7.396h3.594c5.292 0 9.583-4.287 9.583-9.575zm-19.167 7.18c-3.97 0-7.187-3.215-7.187-7.18v-9.575h23.958v9.574c0 3.966-3.218 7.181-7.187 7.181h-9.584z" transform="translate(-559 -383) translate(325 223) translate(176 136) translate(24 24)"/>
                    </g>
                </g>
            </g>
        </g>
    </g>
</svg>
