<svg xmlns="http://www.w3.org/2000/svg" width="64" height="96" viewBox="0 0 64 96">
    <g fill="none" fill-rule="evenodd">
        <g fill="#39393A">
            <g>
                <g>
                    <g>
                        <path d="M59 39v43c0 1.654-1.346 3-3 3H37v-2h4V66h10v17h5c.552 0 1-.449 1-1V39h2zM49 68h-6v15h6V68zm2-25v14H41V43h10zm-2 2h-6v10h6V45zM37 11.586l6 6V12h6v11.586l13.707 13.707c.254.254.35.622.26.964l-.043.126c-.155.374-.52.617-.924.617H37v-2h22.586L37 14.414v-2.828zm20.364 2.05c.391.39.391 1.023 0 1.414L55.414 17H62c.553 0 1 .447 1 1 0 .553-.447 1-1 1h-6.586l1.95 1.95c.391.391.391 1.023 0 1.414-.195.195-.45.293-.707.293-.256 0-.512-.098-.707-.293l-3.634-3.634c-.179-.168-.296-.4-.314-.661-.003-.055-.003-.11.002-.164.024-.253.142-.478.318-.64l3.628-3.629c.391-.39 1.023-.39 1.414 0z" transform="translate(-718 -383) translate(325 223) translate(352 136) translate(24 24)"/>
                    </g>
                </g>
            </g>
        </g>
    </g>
</svg>
