<svg xmlns="http://www.w3.org/2000/svg" width="74" height="96" viewBox="0 0 74 96">
    <g fill="none" fill-rule="evenodd">
        <g fill="#39393A">
            <g>
                <g>
                    <g>
                        <path d="M34 40v12h51c.553 0 1 .447 1 1 0 .553-.447 1-1 1h-2v32h-2V54H34v4h2v2h2v4h-2v2h-2v17c0 1.595-1.252 2.903-2.824 2.995L31 86H12v-2h4V67h10v17h5c.552 0 1-.449 1-1V40h2zm35.512 25c.828 0 1.564.51 1.862 1.27l.054.156 1.62 5.403 1.207-.696c.193-.11.414-.153.63-.125l.13.025c.255.07.474.237.606.466.258.446.135 1.004-.268 1.303l-.098.064-1.616.934c.204.718.305 1.46.302 2.205l-.01.372-.377 6.68c-.028.491-.409.883-.887.937l-.112.006H72v1c0 .553-.447 1-1 1h-2c-.553 0-1-.447-1-1v-1h-8v1c0 .553-.447 1-1 1h-2c-.552 0-1-.447-1-1v-1h-.554c-.493 0-.906-.357-.987-.832l-.012-.112-.378-6.679c-.045-.91.065-1.824.328-2.699l-.035.121-1.617-.933c-.48-.276-.643-.887-.366-1.366.276-.478.889-.643 1.366-.366l1.205.696 1.623-5.404c.237-.794.936-1.352 1.751-1.42L58.49 65h11.023zM24 69h-6v15h6V69zm47.505 7c-.277-.479-.89-.643-1.366-.366l-1.732 1c-.48.276-.643.887-.367 1.366.186.32.522.5.868.5.169 0 .34-.043.499-.134l1.732-1c.479-.276.643-.888.366-1.366zm-13.645-.366c-.475-.277-1.088-.113-1.366.366-.277.478-.113 1.09.366 1.366l1.732 1c.158.091.33.134.5.134.346 0 .682-.18.867-.5.276-.479.112-1.09-.367-1.366zM68.768 67h-9.535c-.443 0-.831.29-.958.713L56.689 73h14.623l-1.586-5.287c-.127-.423-.516-.713-.958-.713zm-23.404-9.364c.391.39.391 1.023 0 1.414L43.414 61H50c.553 0 1 .447 1 1 0 .553-.447 1-1 1h-6.586l1.95 1.95c.391.391.391 1.023 0 1.414-.195.195-.45.293-.707.293-.256 0-.512-.098-.707-.293l-3.634-3.634c-.179-.168-.296-.4-.314-.661-.003-.055-.003-.11.002-.164.024-.253.142-.478.318-.64l3.628-3.629c.391-.39 1.023-.39 1.414 0zM26 44v14H16V44h10zm-2 2h-6v10h6V46zM12 12.586l25.707 25.707c.286.286.372.716.217 1.09-.155.374-.52.617-.924.617H12v-2h22.586L12 15.414v-2.828z" transform="translate(-537 -383) translate(325 223) translate(176 136) translate(24 24)"/>
                    </g>
                </g>
            </g>
        </g>
    </g>
</svg>
