<svg width="35" height="96" viewBox="0 0 35 96">
    <g fill="none" fill-rule="evenodd">
        <g fill="#39393A">
            <g>
                <g>
                    <g>
                        <path d="M44.807 22.847c8.456 5.08 13.459 11.659 16.166 16.283 3.195 5.454 5.028 11.239 5.028 15.87 0 10.832-7.695 19-17.896 19-9.911 0-17.104-6.632-17.104-15.768 0-5.037 1.335-8.635 5.296-14.26.485-.688 1.05-1.387 1.648-2.126 3.057-3.783 6.864-8.49 5.36-17.985-.06-.384.106-.768.428-.986.324-.216.742-.225 1.075-.028zm.735 2.83c.78 8.989-3.13 13.826-6.041 17.426-.578.713-1.122 1.387-1.569 2.02-3.733 5.304-4.931 8.489-4.931 13.109 0 6.446 4.146 11.463 10.356 13.153C40.8 69.65 39.15 66.76 39.15 63.76c0-4.7 2.284-8.317 5.096-11.44-.965 2.65 0 7.082 1.88 10.34-.628-5.987 5.64-14.102 5.058-18.397 0 0 7.486 10.184 6.972 18.642-.178 2.9-1.184 5.617-2.99 7.505C60.539 67.778 64 62.088 64 55c0-6.781-5.052-20.41-18.459-29.322z" transform="translate(-380 -383) translate(325 223) translate(0 136) translate(24 24)"/>
                    </g>
                </g>
            </g>
        </g>
    </g>
</svg>
