<svg xmlns="http://www.w3.org/2000/svg" width="52" height="96" viewBox="0 0 52 96">
    <g fill="none" fill-rule="evenodd">
        <g fill="#39393A">
            <g>
                <g>
                    <g>
                        <path d="M54 22c1.103 0 2 .897 2 2v2.048c0 .712-.383 1.376-.999 1.732-.627.363-1.001 1.005-1.001 1.72 0 .715.374 1.357 1 1.719.617.357 1 1.021 1 1.733v2.093C61.6 35.552 66 40.272 66 46v33c0 1.654-1.346 3-3 3H33c-1.654 0-3-1.346-3-3V46c0-5.728 4.402-10.448 10-10.955v-2.093c0-.657.326-1.274.862-1.645l.138-.088c.626-.362 1-1.004 1-1.719 0-.715-.374-1.357-1-1.719-.617-.356-1-1.02-1-1.733V24c0-1.103.897-2 2-2h12zM42 70h-6v1c0 1.654-1.346 3-3 3h-1v5c0 .552.449 1 1 1h30c.552 0 1-.448 1-1v-5h-1c-1.654 0-3-1.346-3-3v-1h-6v1c0 1.654-1.346 3-3 3h-6c-1.654 0-3-1.346-3-3v-1zm13-33H41c-4.962 0-9 4.038-9 9v26h1c.551 0 1-.448 1-1v-1c0-1.103.897-2 2-2h6c1.103 0 2 .897 2 2v1c0 .552.449 1 1 1h6c.552 0 1-.448 1-1v-1c0-1.103.897-2 2-2h6c1.103 0 2 .897 2 2v1c0 .552.448 1 1 1h1V46c0-4.962-4.037-9-9-9zm15.47-25.883C76.815 14.491 82 21.081 82 27c0 5.734-3.352 10-10 10-5.382 0-9-3.289-9-8 0-2.805.805-4.586 2.858-7.413l.377-.517c2.399-3.295 3.158-5.27 2.77-8.966-.083-.796.757-1.363 1.464-.987zM54 24H42v2.048c1.234.714 2 2.036 2 3.452s-.766 2.738-1.999 3.451L42 35h12v-2.048c-1.233-.713-2-2.035-2-3.452 0-1.417.767-2.739 2-3.451V24zm17.103-10.193c.001 3.166-1.012 5.365-3.25 8.44l-.377.516C65.65 25.278 65 26.715 65 29c0 2.484 1.305 4.422 3.56 5.367-.434-.604-.664-1.343-.664-2.159 0-3.791 3.894-4.356 5.104-9.208 2.558 2.071 4 5 4 8 0 .977-.234 2.193-.915 3.18C78.726 32.927 80 30.32 80 27c0-4.595-3.88-9.953-8.897-13.193z" transform="translate(-731 -383) translate(325 223) translate(352 136) translate(24 24)"/>
                    </g>
                </g>
            </g>
        </g>
    </g>
</svg>
