<svg xmlns="http://www.w3.org/2000/svg" width="72" height="96" viewBox="0 0 72 96">
    <g fill="none" fill-rule="evenodd">
        <g fill="#39393A">
            <g>
                <g>
                    <g>
                        <path d="M82.272 23.038c.431.122.728.515.728.962v50c0 1.103-.897 2-2 2H47c-1.103 0-2-.897-2-2V24c0-.447.297-.84.728-.962 11.953-3.388 24.591-3.388 36.544 0zM35 72c.552 0 1 .448 1 1s-.448 1-1 1H12c-.552 0-1-.448-1-1s.448-1 1-1h23zm46-10H47v12h34V62zm-17 4c1.104 0 2 .896 2 2s-.896 2-2 2-2-.896-2-2 .896-2 2-2zm-26-4c.552 0 1 .448 1 1s-.448 1-1 1H21c-.552 0-1-.448-1-1s.448-1 1-1h17zm9-37.24V60h34V24.76c-11.139-3.02-22.861-3.02-34 0zM28 52c.552 0 1 .448 1 1s-.448 1-1 1H12c-.552 0-1-.448-1-1s.448-1 1-1h16zm-6-10c.552 0 1 .448 1 1s-.448 1-1 1H12c-.552 0-1-.448-1-1s.448-1 1-1h10zm16 0c.552 0 1 .448 1 1s-.448 1-1 1h-7c-.552 0-1-.448-1-1s.448-1 1-1h7zm30-9c.553 0 1 .447 1 1v3c0 .553-.447 1-1 1h-8c-.553 0-1-.447-1-1v-3c0-.553.447-1 1-1h8zm-30-.503c.552 0 1 .447 1 1 0 .552-.448 1-1 1H22c-.552 0-1-.448-1-1 0-.553.448-1 1-1h16zm-16-10c.552 0 1 .447 1 1 0 .552-.448 1-1 1H12c-.552 0-1-.448-1-1 0-.553.448-1 1-1h10zm16 0c.552 0 1 .447 1 1 0 .552-.448 1-1 1h-8c-.552 0-1-.448-1-1 0-.553.448-1 1-1h8z" transform="translate(-536 -383) translate(325 223) translate(176 136) translate(24 24)"/>
                    </g>
                </g>
            </g>
        </g>
    </g>
</svg>
