<svg xmlns="http://www.w3.org/2000/svg" width="96" height="96" viewBox="0 0 96 96">
    <g fill="none" fill-rule="evenodd">
        <g fill="#39393A">
            <g>
                <g>
                    <g>
                        <path d="M36.48 35.066l12.02 12.02 12.02-12.02c.391-.392 1.023-.392 1.414 0 .392.39.392 1.023 0 1.413L49.915 48.5l12.02 12.02c.392.391.392 1.023 0 1.414-.194.196-.45.294-.706.294-.257 0-.513-.099-.708-.294L48.5 49.915l-12.02 12.02c-.195.196-.451.294-.707.294-.257 0-.513-.099-.708-.294-.39-.39-.39-1.023 0-1.413L47.087 48.5 35.066 36.48c-.392-.391-.392-1.023 0-1.414.39-.392 1.023-.392 1.413 0z" transform="translate(-701 -383) translate(325 223) translate(352 136) translate(24 24)"/>
                    </g>
                </g>
            </g>
        </g>
    </g>
</svg>
