<svg xmlns="http://www.w3.org/2000/svg" width="28" height="96" viewBox="0 0 28 96">
    <g fill="none" fill-rule="evenodd">
        <g fill="#39393A">
            <g>
                <g>
                    <g>
                        <path d="M49.17 31.769c-.494-.77-1.514-1-2.29-.516-.214.129-.394.305-.528.516C42.822 37.109 34 51.248 34 57.344c0 7.594 6.156 13.75 13.75 13.75s13.75-6.156 13.75-13.75c0-6.096-8.823-20.236-12.33-25.575zm3.679 34.925l-.882-2.12c3.047-1.283 5.007-4.291 4.95-7.597h2.291c.049 4.216-2.474 8.037-6.37 9.648l.011.069z" transform="translate(-911 -383) translate(325 223) translate(528 136) translate(24 24)"/>
                    </g>
                </g>
            </g>
        </g>
    </g>
</svg>
